#!OML:ASF H:\Terrain\Walking\May29\JustinRory\Justin.ASF
:FULLY-SPECIFIED
:DEGREES
186
root 11.3949 16.3137 10.0309 -326.204 -76.3832 334.797
lowerback 20.7779 -3.38993 -2.09292
upperback 5.55876 -4.93763 3.86034
thorax -4.99085 -2.56834 6.57421
lowerneck 4.19901 -20.404 -18.2938
upperneck -4.07723 -28.6096 25.8148
head 4.64966 -14.6412 8.33098
rclavicle -7.35503e-015 -5.96354e-015
rhumerus -30.8849 -39.9551 -0.891594
rradius 31.2406
rwrist -59.3472
rhand -3.42136 -4.572
rfingers 7.12502
rthumb 22.3095 -33.3041
lclavicle -7.35503e-015 -5.96354e-015
lhumerus -34.4893 35.7563 16.5788
lradius 34.9442
lwrist 3.0582
lhand -6.12877 47.9153
lfingers 7.12502
lthumb 19.7086 76.9362
rfemur -17.2307 -5.46461 4.48432
rtibia 36.2304
rfoot -20.5409 -4.38663
rtoes -31.3059
lfemur -34.8739 21.4124 0.58995
ltibia 65.8028
lfoot -22.082 -15.5961
ltoes -27.2103
187
root 11.4102 16.2829 10.1169 -323.926 -77.2235 332.48
lowerback 20.9829 -3.22437 -2.30484
upperback 5.83724 -4.78691 4.07519
thorax -4.77496 -2.52149 6.89814
lowerneck 3.90598 -20.3452 -19.1491
upperneck -3.38528 -28.6399 25.8479
head 5.04012 -14.5926 8.35541
rclavicle 5.9039e-014 -1.82882e-014
rhumerus -29.7578 -39.9747 -1.39036
rradius 31.145
rwrist -59.7482
rhand -3.84242 -4.59286
rfingers 7.12502
rthumb 21.9053 -33.3728
lclavicle 5.9039e-014 -1.82882e-014
lhumerus -38.1598 35.9742 15.0084
lradius 34.9891
lwrist 3.24825
lhand -7.03006 48.2007
lfingers 7.12502
lthumb 18.8419 77.3082
rfemur -17.5362 -5.07337 4.15555
rtibia 36.0603
rfoot -20.232 -3.90374
rtoes -32.101
lfemur -34.8762 22.1961 0.720714
ltibia 66.752
lfoot -22.3 -16.4187
ltoes -27.8649
188
root 11.4232 16.2546 10.2086 -322.042 -77.6886 330.614
lowerback 21.0695 -3.25337 -2.36662
upperback 6.09155 -4.85561 4.33471
thorax -4.50374 -2.58536 7.22671
lowerneck 3.59884 -20.1963 -19.7827
upperneck -2.62535 -28.4992 25.5271
head 5.32065 -14.4565 8.29987
rclavicle -6.7388e-014 8.3092e-014
rhumerus -28.5128 -40.4616 -1.89994
rradius 30.8634
rwrist -59.5295
rhand -3.7329 -4.88
rfingers 7.12502
rthumb 22.0104 -33.6476
lclavicle -6.7388e-014 8.3092e-014
lhumerus -42.0833 36.3213 13.4121
lradius 35.2856
lwrist 3.51864
lhand -6.82074 48.3637
lfingers 7.12502
lthumb 19.0432 77.4514
rfemur -17.7008 -4.83159 3.88846
rtibia 35.9102
rfoot -19.8958 -3.72192
rtoes -32.7013
lfemur -35.1126 22.688 0.778545
ltibia 67.5632
lfoot -22.5614 -16.6846
ltoes -30.4055
189
root 11.4319 16.2231 10.2883 -320.895 -78.4601 329.404
lowerback 21.2649 -3.08411 -2.76618
upperback 6.34943 -4.74756 4.27882
thorax -4.31025 -2.55457 7.37259
lowerneck 3.52751 -20.0457 -19.7588
upperneck -2.06705 -28.3539 25.3495
head 5.43363 -14.3568 8.25766
rclavicle 9.74045e-015 1.07344e-014
rhumerus -27.9429 -41.0603 -2.17917
rradius 30.4839
rwrist -59.2742
rhand -3.14606 -4.97192
rfingers 7.12502
rthumb 22.5738 -33.6721
lclavicle 9.74045e-015 1.07344e-014
lhumerus -45.2189 36.2161 12.1982
lradius 35.6807
lwrist 4.18132
lhand -8.96665 49.957
lfingers 7.12502
lthumb 16.9785 79.235
rfemur -17.8067 -4.45142 3.27163
rtibia 35.7207
rfoot -19.7308 -3.29328
rtoes -32.6328
lfemur -35.1704 23.3367 0.49648
ltibia 68.2796
lfoot -22.9062 -16.8641
ltoes -32.401
190
root 11.4396 16.1954 10.3594 -323.823 -79.8394 332.363
lowerback 21.4002 -2.77248 -4.33458
upperback 6.63231 -4.70344 3.9657
thorax -3.973 -2.56265 7.9162
lowerneck 3.44098 -19.9703 -19.4789
upperneck -1.70092 -28.2514 25.0587
head 5.44337 -14.2867 8.15139
rclavicle 9.70069e-014 -3.93594e-014
rhumerus -27.2719 -41.6312 -2.68025
rradius 30.2727
rwrist -59.8925
rhand -3.48981 -5.12042
rfingers 7.12502
rthumb 22.2438 -33.8604
lclavicle 9.70069e-014 -3.93594e-014
lhumerus -48.1534 36.1883 11.2007
lradius 36.0477
lwrist 5.28211
lhand -10.9394 50.9741
lfingers 7.12502
lthumb 15.0789 80.4049
rfemur -18.0029 -4.52174 1.59614
rtibia 35.5086
rfoot -19.6232 -2.57569
rtoes -33.2053
lfemur -35.196 23.8471 -1.00103
ltibia 68.872
lfoot -22.63 -17.2421
ltoes -30.979
